# xmcd
#
# Track frame offsets:
#	150
#	12834
#	21780
#	32127
#	40696
#	54411
#	68683
#	77763
#	89924
#	102684
#	113091
#	124023
#	135711
#	150543
#
# Disc length: 2206 seconds
#
# Revision: 2
# Processed by: cddbd v1.5.2PL0 Copyright (c) Steve Scherf et al.
# Submitted via: audiograbber 1.83.01
#
DISCID=b3089c0e
DTITLE=Waylon Jennings - Live From Austin TX
DYEAR=1984
DGENRE=Country
TTITLE0=Are You Ready For The Country
TTITLE1=Clyde
TTITLE2=I Can Get Off On You
TTITLE3=People Up In Texas
TTITLE4=It's Not Supposed To Be That Way
TTITLE5=Don't You Think This Outlaw Bit's Done Got Out Of Hand
TTITLE6=You Asked Me To
TTITLE7=Dreaming My Dreams With You
TTITLE8=Good Hearted Woman
TTITLE9=I May Be Used (But Baby I Ain't Used Up)
TTITLE10=Let's Turn Back The Years
TTITLE11=Honky Tonk Heroes
TTITLE12=I Ain't Living Long Like This
TTITLE13=I've Always Been Crazy
EXTD=YEAR: 1984
EXTT0=
EXTT1=
EXTT2=
EXTT3=
EXTT4=
EXTT5=
EXTT6=
EXTT7=
EXTT8=
EXTT9=
EXTT10=
EXTT11=
EXTT12=
EXTT13=
PLAYORDER=
